<svg width="16" height="16" viewBox="0 0 16 16" fill="none" xmlns="http://www.w3.org/2000/svg">
<path d="M1.9902 0.990181C1.79126 0.990233 1.59687 1.04961 1.43186 1.16073C1.26685 1.27184 1.13872 1.42964 1.06387 1.61395C0.989008 1.79826 0.970819 2.00071 1.01162 2.19542C1.05243 2.39012 1.15037 2.56823 1.29293 2.70698L6.5859 7.99995L1.29293 13.2929C1.19696 13.3851 1.12033 13.4954 1.06755 13.6176C1.01476 13.7397 0.986879 13.8711 0.985525 14.0042C0.984172 14.1372 1.00938 14.2692 1.05967 14.3924C1.10996 14.5155 1.18432 14.6274 1.2784 14.7215C1.37248 14.8156 1.48438 14.89 1.60756 14.9402C1.73073 14.9905 1.86271 15.0157 1.99575 15.0144C2.12879 15.013 2.26022 14.9851 2.38235 14.9324C2.50448 14.8796 2.61485 14.803 2.70699 14.707L7.99996 9.41401L13.2929 14.707C13.3851 14.803 13.4954 14.8796 13.6176 14.9324C13.7397 14.9851 13.8711 15.013 14.0042 15.0144C14.1372 15.0157 14.2692 14.9905 14.3924 14.9402C14.5155 14.89 14.6275 14.8156 14.7215 14.7215C14.8156 14.6274 14.89 14.5155 14.9403 14.3924C14.9906 14.2692 15.0158 14.1372 15.0144 14.0042C15.0131 13.8711 14.9852 13.7397 14.9324 13.6176C14.8796 13.4954 14.803 13.3851 14.707 13.2929L9.41402 7.99995L14.707 2.70698C14.8515 2.56652 14.9502 2.38567 14.9902 2.18815C15.0301 1.99063 15.0095 1.78565 14.9309 1.60007C14.8524 1.41448 14.7196 1.25695 14.55 1.14812C14.3804 1.03929 14.1819 0.98424 13.9804 0.990181C13.7206 0.997922 13.4741 1.1065 13.2929 1.29292L7.99996 6.58589L2.70699 1.29292C2.6138 1.19712 2.50236 1.12098 2.37924 1.06898C2.25613 1.01698 2.12384 0.990189 1.9902 0.990181Z" fill="white"/>
</svg>
