<svg width="28" height="16" viewBox="0 0 28 16" fill="none" xmlns="http://www.w3.org/2000/svg">
<path d="M1.99996 -2.2063e-05C1.86745 -0.00189611 1.73589 0.0225852 1.61292 0.0719989C1.48995 0.121413 1.37803 0.194773 1.28366 0.287818C1.18929 0.380862 1.11435 0.491735 1.0632 0.613992C1.01206 0.736249 0.985718 0.867453 0.985718 0.999978C0.985718 1.1325 1.01206 1.26371 1.0632 1.38596C1.11435 1.50822 1.18929 1.61909 1.28366 1.71214C1.37803 1.80518 1.48995 1.87854 1.61292 1.92796C1.73589 1.97737 1.86745 2.00185 1.99996 1.99998H26C26.1325 2.00185 26.264 1.97737 26.387 1.92796C26.51 1.87854 26.6219 1.80518 26.7163 1.71214C26.8106 1.61909 26.8856 1.50822 26.9367 1.38596C26.9879 1.26371 27.0142 1.1325 27.0142 0.999978C27.0142 0.867453 26.9879 0.736249 26.9367 0.613992C26.8856 0.491735 26.8106 0.380862 26.7163 0.287818C26.6219 0.194773 26.51 0.121413 26.387 0.0719989C26.264 0.0225852 26.1325 -0.00189611 26 -2.2063e-05H1.99996ZM1.99996 6.99998C1.86745 6.9981 1.73589 7.02258 1.61292 7.072C1.48995 7.12141 1.37803 7.19477 1.28366 7.28782C1.18929 7.38086 1.11435 7.49173 1.0632 7.61399C1.01206 7.73625 0.985718 7.86745 0.985718 7.99998C0.985718 8.1325 1.01206 8.26371 1.0632 8.38596C1.11435 8.50822 1.18929 8.61909 1.28366 8.71214C1.37803 8.80518 1.48995 8.87854 1.61292 8.92796C1.73589 8.97737 1.86745 9.00185 1.99996 8.99998H26C26.1325 9.00185 26.264 8.97737 26.387 8.92796C26.51 8.87854 26.6219 8.80518 26.7163 8.71214C26.8106 8.61909 26.8856 8.50822 26.9367 8.38596C26.9879 8.26371 27.0142 8.1325 27.0142 7.99998C27.0142 7.86745 26.9879 7.73625 26.9367 7.61399C26.8856 7.49173 26.8106 7.38086 26.7163 7.28782C26.6219 7.19477 26.51 7.12141 26.387 7.072C26.264 7.02258 26.1325 6.9981 26 6.99998H1.99996ZM1.99996 14C1.86745 13.9981 1.73589 14.0226 1.61292 14.072C1.48995 14.1214 1.37803 14.1948 1.28366 14.2878C1.18929 14.3809 1.11435 14.4917 1.0632 14.614C1.01206 14.7362 0.985718 14.8675 0.985718 15C0.985718 15.1325 1.01206 15.2637 1.0632 15.386C1.11435 15.5082 1.18929 15.6191 1.28366 15.7121C1.37803 15.8052 1.48995 15.8785 1.61292 15.928C1.73589 15.9774 1.86745 16.0019 1.99996 16H26C26.1325 16.0019 26.264 15.9774 26.387 15.928C26.51 15.8785 26.6219 15.8052 26.7163 15.7121C26.8106 15.6191 26.8856 15.5082 26.9367 15.386C26.9879 15.2637 27.0142 15.1325 27.0142 15C27.0142 14.8675 26.9879 14.7362 26.9367 14.614C26.8856 14.4917 26.8106 14.3809 26.7163 14.2878C26.6219 14.1948 26.51 14.1214 26.387 14.072C26.264 14.0226 26.1325 13.9981 26 14H1.99996Z" fill="white"/>
</svg>
